<svg width="800" height="200" viewBox="0 0 800 200" xmlns="http://www.w3.org/2000/svg" role="img" aria-label="Ergs - Datahoarder's Paradise">
  <defs>
    <linearGradient id="duneGrad" x1="0%" y1="0%" x2="0%" y2="100%">
      <stop offset="0%" stop-color="#ebcb8b"/>
      <stop offset="55%" stop-color="#d08770"/>
      <stop offset="100%" stop-color="#bf616a"/>
    </linearGradient>
  </defs>

  <!-- Dune landscape -->
  <path d="M50 130c20-8 40-20 60-35 30-20 47-20 73 0 10 7 20 14 33 17 13 7 27 7 47 3v85H50V130Z" fill="url(#duneGrad)"/>
  <path d="M50 130c20-8 40-20 60-35 30-20 47-20 73 0 10 7 20 14 33 17 13 7 27 7 47 3" fill="none" stroke="rgba(255,255,255,0.20)" stroke-width="3" stroke-linecap="round"/>

  <!-- Sun -->
  <circle cx="220" cy="60" r="18" fill="#ebcb8b" opacity="0.9"/>

  <!-- Text: Ergs -->
  <text x="320" y="120" font-family="system-ui, -apple-system, sans-serif" font-size="72" font-weight="700" fill="#fafafa">Ergs</text>

  <!-- Tagline -->
  <text x="320" y="165" font-family="system-ui, -apple-system, sans-serif" font-size="24" font-weight="300" fill="#a1a1aa">Datahoarder's Paradise</text>
</svg>
