<svg width="800" height="240" viewBox="0 0 800 240" xmlns="http://www.w3.org/2000/svg" role="img" aria-label="Ergs - Datahoarder's Paradise">
  <defs>
    <linearGradient id="duneGrad" x1="0%" y1="0%" x2="0%" y2="100%">
      <stop offset="0%" stop-color="#ebcb8b"/>
      <stop offset="55%" stop-color="#d08770"/>
      <stop offset="100%" stop-color="#bf616a"/>
    </linearGradient>
  </defs>

  <!-- Dune landscape -->
  <path d="M50 150c20-8 40-20 60-35 30-20 47-20 73 0 10 7 20 14 33 17 13 7 27 7 47 3v105H50V150Z" fill="url(#duneGrad)"/>
  <path d="M50 150c20-8 40-20 60-35 30-20 47-20 73 0 10 7 20 14 33 17 13 7 27 7 47 3" fill="none" stroke="rgba(255,255,255,0.20)" stroke-width="3" stroke-linecap="round"/>

  <!-- Sun -->
  <circle cx="220" cy="70" r="18" fill="#ebcb8b" opacity="0.9"/>

  <!-- Text: Ergs (with stroke for visibility on both themes) -->
  <text x="320" y="180" font-family="system-ui, -apple-system, sans-serif" font-size="96" font-weight="700" fill="#2d3748" stroke="#fafafa" stroke-width="2">Ergs</text>

  <!-- Tagline (with stroke for visibility on both themes) -->
  <text x="320" y="235" font-family="system-ui, -apple-system, sans-serif" font-size="32" font-weight="300" fill="#4a5568" stroke="#f0f0f0" stroke-width="1">Datahoarder's Paradise</text>
</svg>
