<svg width="144" height="96" viewBox="0 0 72 48" xmlns="http://www.w3.org/2000/svg" role="img" aria-label="Ergs Dune Logo">
  <defs>
    <linearGradient id="duneGrad" x1="0%" y1="0%" x2="0%" y2="100%">
      <stop offset="0%" stop-color="#ebcb8b"/>
      <stop offset="55%" stop-color="#d08770"/>
      <stop offset="100%" stop-color="#bf616a"/>
    </linearGradient>
  </defs>
  <path d="M4 34c6-2 12-6 18-10 9-6 14-6 22 0 3 2 6 4 10 5 4 2 8 2 14 1v10H4V34Z" fill="url(#duneGrad)"/>
  <path d="M4 34c6-2 12-6 18-10 9-6 14-6 22 0 3 2 6 4 10 5 4 2 8 2 14 1" fill="none" stroke="rgba(255,255,255,0.20)" stroke-width="2" stroke-linecap="round"/>
  <circle cx="52" cy="14" r="5" fill="#ebcb8b" opacity="0.9"/>
</svg>
